<svg id="visual" viewBox="0 0 960 540" width="960" height="540" xmlns="http://www.w3.org/2000/svg" xmlns:xlink="http://www.w3.org/1999/xlink" version="1.1"><path d="M0 50L22.8 51.7C45.7 53.3 91.3 56.7 137 58.3C182.7 60 228.3 60 274 56.5C319.7 53 365.3 46 411.2 43.3C457 40.7 503 42.3 548.8 45.8C594.7 49.3 640.3 54.7 686 54.7C731.7 54.7 777.3 49.3 823 49.3C868.7 49.3 914.3 54.7 937.2 57.3L960 60L960 0L937.2 0C914.3 0 868.7 0 823 0C777.3 0 731.7 0 686 0C640.3 0 594.7 0 548.8 0C503 0 457 0 411.2 0C365.3 0 319.7 0 274 0C228.3 0 182.7 0 137 0C91.3 0 45.7 0 22.8 0L0 0Z" fill="#4dc7cd"></path><path d="M0 82L22.8 84.7C45.7 87.3 91.3 92.7 137 93.5C182.7 94.3 228.3 90.7 274 87.2C319.7 83.7 365.3 80.3 411.2 77.7C457 75 503 73 548.8 75.7C594.7 78.3 640.3 85.7 686 86.7C731.7 87.7 777.3 82.3 823 82.3C868.7 82.3 914.3 87.7 937.2 90.3L960 93L960 58L937.2 55.3C914.3 52.7 868.7 47.3 823 47.3C777.3 47.3 731.7 52.7 686 52.7C640.3 52.7 594.7 47.3 548.8 43.8C503 40.3 457 38.7 411.2 41.3C365.3 44 319.7 51 274 54.5C228.3 58 182.7 58 137 56.3C91.3 54.7 45.7 51.3 22.8 49.7L0 48Z" fill="#36bbc2"></path><path d="M0 98L22.8 100.7C45.7 103.3 91.3 108.7 137 110.5C182.7 112.3 228.3 110.7 274 107.2C319.7 103.7 365.3 98.3 411.2 95.7C457 93 503 93 548.8 97.5C594.7 102 640.3 111 686 113.7C731.7 116.3 777.3 112.7 823 110.8C868.7 109 914.3 109 937.2 109L960 109L960 91L937.2 88.3C914.3 85.7 868.7 80.3 823 80.3C777.3 80.3 731.7 85.7 686 84.7C640.3 83.7 594.7 76.3 548.8 73.7C503 71 457 73 411.2 75.7C365.3 78.3 319.7 81.7 274 85.2C228.3 88.7 182.7 92.3 137 91.5C91.3 90.7 45.7 85.3 22.8 82.7L0 80Z" fill="#11afb7"></path><path d="M0 125L22.8 129.5C45.7 134 91.3 143 137 148.5C182.7 154 228.3 156 274 155.2C319.7 154.3 365.3 150.7 411.2 145.2C457 139.7 503 132.3 548.8 133.2C594.7 134 640.3 143 686 147.5C731.7 152 777.3 152 823 152C868.7 152 914.3 152 937.2 152L960 152L960 107L937.2 107C914.3 107 868.7 107 823 108.8C777.3 110.7 731.7 114.3 686 111.7C640.3 109 594.7 100 548.8 95.5C503 91 457 91 411.2 93.7C365.3 96.3 319.7 101.7 274 105.2C228.3 108.7 182.7 110.3 137 108.5C91.3 106.7 45.7 101.3 22.8 98.7L0 96Z" fill="#009ca3"></path><path d="M0 249L22.8 251.8C45.7 254.7 91.3 260.3 137 262.2C182.7 264 228.3 262 274 262C319.7 262 365.3 264 411.2 259.5C457 255 503 244 548.8 238.5C594.7 233 640.3 233 686 243.8C731.7 254.7 777.3 276.3 823 285.3C868.7 294.3 914.3 290.7 937.2 288.8L960 287L960 150L937.2 150C914.3 150 868.7 150 823 150C777.3 150 731.7 150 686 145.5C640.3 141 594.7 132 548.8 131.2C503 130.3 457 137.7 411.2 143.2C365.3 148.7 319.7 152.3 274 153.2C228.3 154 182.7 152 137 146.5C91.3 141 45.7 132 22.8 127.5L0 123Z" fill="#00878d"></path><path d="M0 276L22.8 277C45.7 278 91.3 280 137 280C182.7 280 228.3 278 274 279.8C319.7 281.7 365.3 287.3 411.2 282.8C457 278.3 503 263.7 548.8 256.3C594.7 249 640.3 249 686 259.8C731.7 270.7 777.3 292.3 823 302.3C868.7 312.3 914.3 310.7 937.2 309.8L960 309L960 285L937.2 286.8C914.3 288.7 868.7 292.3 823 283.3C777.3 274.3 731.7 252.7 686 241.8C640.3 231 594.7 231 548.8 236.5C503 242 457 253 411.2 257.5C365.3 262 319.7 260 274 260C228.3 260 182.7 262 137 260.2C91.3 258.3 45.7 252.7 22.8 249.8L0 247Z" fill="#007f84"></path><path d="M0 309L22.8 309.8C45.7 310.7 91.3 312.3 137 310.5C182.7 308.7 228.3 303.3 274 303.3C319.7 303.3 365.3 308.7 411.2 306C457 303.3 503 292.7 548.8 286.3C594.7 280 640.3 278 686 288.8C731.7 299.7 777.3 323.3 823 334.2C868.7 345 914.3 343 937.2 342L960 341L960 307L937.2 307.8C914.3 308.7 868.7 310.3 823 300.3C777.3 290.3 731.7 268.7 686 257.8C640.3 247 594.7 247 548.8 254.3C503 261.7 457 276.3 411.2 280.8C365.3 285.3 319.7 279.7 274 277.8C228.3 276 182.7 278 137 278C91.3 278 45.7 276 22.8 275L0 274Z" fill="#007f84"></path><path d="M0 325L22.8 326.8C45.7 328.7 91.3 332.3 137 331.5C182.7 330.7 228.3 325.3 274 324.3C319.7 323.3 365.3 326.7 411.2 323.8C457 321 503 312 548.8 306.7C594.7 301.3 640.3 299.7 686 309.7C731.7 319.7 777.3 341.3 823 351.2C868.7 361 914.3 359 937.2 358L960 357L960 339L937.2 340C914.3 341 868.7 343 823 332.2C777.3 321.3 731.7 297.7 686 286.8C640.3 276 594.7 278 548.8 284.3C503 290.7 457 301.3 411.2 304C365.3 306.7 319.7 301.3 274 301.3C228.3 301.3 182.7 306.7 137 308.5C91.3 310.3 45.7 308.7 22.8 307.8L0 307Z" fill="#00878d"></path><path d="M0 433L22.8 433.8C45.7 434.7 91.3 436.3 137 439C182.7 441.7 228.3 445.3 274 444.5C319.7 443.7 365.3 438.3 411.2 431.2C457 424 503 415 548.8 413.2C594.7 411.3 640.3 416.7 686 423C731.7 429.3 777.3 436.7 823 439.3C868.7 442 914.3 440 937.2 439L960 438L960 355L937.2 356C914.3 357 868.7 359 823 349.2C777.3 339.3 731.7 317.7 686 307.7C640.3 297.7 594.7 299.3 548.8 304.7C503 310 457 319 411.2 321.8C365.3 324.7 319.7 321.3 274 322.3C228.3 323.3 182.7 328.7 137 329.5C91.3 330.3 45.7 326.7 22.8 324.8L0 323Z" fill="#009ca3"></path><path d="M0 455L22.8 455C45.7 455 91.3 455 137 458.5C182.7 462 228.3 469 274 469C319.7 469 365.3 462 411.2 453C457 444 503 433 548.8 431.2C594.7 429.3 640.3 436.7 686 443C731.7 449.3 777.3 454.7 823 457.3C868.7 460 914.3 460 937.2 460L960 460L960 436L937.2 437C914.3 438 868.7 440 823 437.3C777.3 434.7 731.7 427.3 686 421C640.3 414.7 594.7 409.3 548.8 411.2C503 413 457 422 411.2 429.2C365.3 436.3 319.7 441.7 274 442.5C228.3 443.3 182.7 439.7 137 437C91.3 434.3 45.7 432.7 22.8 431.8L0 431Z" fill="#11afb7"></path><path d="M0 487L22.8 487.8C45.7 488.7 91.3 490.3 137 492.2C182.7 494 228.3 496 274 494.3C319.7 492.7 365.3 487.3 411.2 480.2C457 473 503 464 548.8 464C594.7 464 640.3 473 686 477.5C731.7 482 777.3 482 823 484.7C868.7 487.3 914.3 492.7 937.2 495.3L960 498L960 458L937.2 458C914.3 458 868.7 458 823 455.3C777.3 452.7 731.7 447.3 686 441C640.3 434.7 594.7 427.3 548.8 429.2C503 431 457 442 411.2 451C365.3 460 319.7 467 274 467C228.3 467 182.7 460 137 456.5C91.3 453 45.7 453 22.8 453L0 453Z" fill="#36bbc2"></path><path d="M0 541L22.8 541C45.7 541 91.3 541 137 541C182.7 541 228.3 541 274 541C319.7 541 365.3 541 411.2 541C457 541 503 541 548.8 541C594.7 541 640.3 541 686 541C731.7 541 777.3 541 823 541C868.7 541 914.3 541 937.2 541L960 541L960 496L937.2 493.3C914.3 490.7 868.7 485.3 823 482.7C777.3 480 731.7 480 686 475.5C640.3 471 594.7 462 548.8 462C503 462 457 471 411.2 478.2C365.3 485.3 319.7 490.7 274 492.3C228.3 494 182.7 492 137 490.2C91.3 488.3 45.7 486.7 22.8 485.8L0 485Z" fill="#4dc7cd"></path></svg>