<svg id="visual" viewBox="0 0 500 1500" width="500" height="1500" xmlns="http://www.w3.org/2000/svg" xmlns:xlink="http://www.w3.org/1999/xlink" version="1.1"><path d="M0 0L11.8 2.7C23.7 5.3 47.3 10.7 71.2 13.3C95 16 119 16 142.8 33.5C166.7 51 190.3 86 214.2 83.3C238 80.7 262 40.3 285.8 30.3C309.7 20.3 333.3 40.7 357.2 40.7C381 40.7 405 20.3 428.8 32.8C452.7 45.3 476.3 90.7 488.2 113.3L500 136L500 0L488.2 0C476.3 0 452.7 0 428.8 0C405 0 381 0 357.2 0C333.3 0 309.7 0 285.8 0C262 0 238 0 214.2 0C190.3 0 166.7 0 142.8 0C119 0 95 0 71.2 0C47.3 0 23.7 0 11.8 0L0 0Z" fill="#4dc7cd"></path><path d="M0 91L11.8 93.5C23.7 96 47.3 101 71.2 113.5C95 126 119 146 142.8 153.5C166.7 161 190.3 156 214.2 141C238 126 262 101 285.8 96C309.7 91 333.3 106 357.2 113.5C381 121 405 121 428.8 148.5C452.7 176 476.3 231 488.2 258.5L500 286L500 134L488.2 111.7C476.3 89.3 452.7 44.7 428.8 32.2C405 19.7 381 39.3 357.2 39.3C333.3 39.3 309.7 19.7 285.8 29.7C262 39.7 238 79.3 214.2 81.7C190.3 84 166.7 49 142.8 31.5C119 14 95 14 71.2 11.7C47.3 9.3 23.7 4.7 11.8 2.3L0 0Z" fill="#36bbc2"></path><path d="M0 151L11.8 146C23.7 141 47.3 131 71.2 136C95 141 119 161 142.8 173.5C166.7 186 190.3 191 214.2 178.5C238 166 262 136 285.8 138.5C309.7 141 333.3 176 357.2 203.5C381 231 405 251 428.8 266C452.7 281 476.3 291 488.2 296L500 301L500 284L488.2 256.5C476.3 229 452.7 174 428.8 146.5C405 119 381 119 357.2 111.5C333.3 104 309.7 89 285.8 94C262 99 238 124 214.2 139C190.3 154 166.7 159 142.8 151.5C119 144 95 124 71.2 111.5C47.3 99 23.7 94 11.8 91.5L0 89Z" fill="#11afb7"></path><path d="M0 301L11.8 276C23.7 251 47.3 201 71.2 193.5C95 186 119 221 142.8 238.5C166.7 256 190.3 256 214.2 243.5C238 231 262 206 285.8 226C309.7 246 333.3 311 357.2 328.5C381 346 405 316 428.8 306C452.7 296 476.3 306 488.2 311L500 316L500 299L488.2 294C476.3 289 452.7 279 428.8 264C405 249 381 229 357.2 201.5C333.3 174 309.7 139 285.8 136.5C262 134 238 164 214.2 176.5C190.3 189 166.7 184 142.8 171.5C119 159 95 139 71.2 134C47.3 129 23.7 139 11.8 144L0 149Z" fill="#009ca3"></path><path d="M0 796L11.8 726C23.7 656 47.3 516 71.2 451C95 386 119 396 142.8 436C166.7 476 190.3 546 214.2 513.5C238 481 262 346 285.8 381C309.7 416 333.3 621 357.2 653.5C381 686 405 546 428.8 508.5C452.7 471 476.3 536 488.2 568.5L500 601L500 314L488.2 309C476.3 304 452.7 294 428.8 304C405 314 381 344 357.2 326.5C333.3 309 309.7 244 285.8 224C262 204 238 229 214.2 241.5C190.3 254 166.7 254 142.8 236.5C119 219 95 184 71.2 191.5C47.3 199 23.7 249 11.8 274L0 299Z" fill="#00878d"></path><path d="M0 916L11.8 846C23.7 776 47.3 636 71.2 593.5C95 551 119 606 142.8 658.5C166.7 711 190.3 761 214.2 701C238 641 262 471 285.8 476C309.7 481 333.3 661 357.2 678.5C381 696 405 551 428.8 523.5C452.7 496 476.3 586 488.2 631L500 676L500 599L488.2 566.5C476.3 534 452.7 469 428.8 506.5C405 544 381 684 357.2 651.5C333.3 619 309.7 414 285.8 379C262 344 238 479 214.2 511.5C190.3 544 166.7 474 142.8 434C119 394 95 384 71.2 449C47.3 514 23.7 654 11.8 724L0 794Z" fill="#007f84"></path><path d="M0 1006L11.8 946C23.7 886 47.3 766 71.2 708.5C95 651 119 656 142.8 696C166.7 736 190.3 811 214.2 771C238 731 262 576 285.8 581C309.7 586 333.3 751 357.2 763.5C381 776 405 636 428.8 603.5C452.7 571 476.3 646 488.2 683.5L500 721L500 674L488.2 629C476.3 584 452.7 494 428.8 521.5C405 549 381 694 357.2 676.5C333.3 659 309.7 479 285.8 474C262 469 238 639 214.2 699C190.3 759 166.7 709 142.8 656.5C119 604 95 549 71.2 591.5C47.3 634 23.7 774 11.8 844L0 914Z" fill="#007f84"></path><path d="M0 1021L11.8 976C23.7 931 47.3 841 71.2 798.5C95 756 119 761 142.8 801C166.7 841 190.3 916 214.2 893.5C238 871 262 751 285.8 741C309.7 731 333.3 831 357.2 833.5C381 836 405 741 428.8 746C452.7 751 476.3 856 488.2 908.5L500 961L500 719L488.2 681.5C476.3 644 452.7 569 428.8 601.5C405 634 381 774 357.2 761.5C333.3 749 309.7 584 285.8 579C262 574 238 729 214.2 769C190.3 809 166.7 734 142.8 694C119 654 95 649 71.2 706.5C47.3 764 23.7 884 11.8 944L0 1004Z" fill="#00878d"></path><path d="M0 1126L11.8 1081C23.7 1036 47.3 946 71.2 901C95 856 119 856 142.8 898.5C166.7 941 190.3 1026 214.2 1006C238 986 262 861 285.8 846C309.7 831 333.3 926 357.2 916C381 906 405 791 428.8 783.5C452.7 776 476.3 876 488.2 926L500 976L500 959L488.2 906.5C476.3 854 452.7 749 428.8 744C405 739 381 834 357.2 831.5C333.3 829 309.7 729 285.8 739C262 749 238 869 214.2 891.5C190.3 914 166.7 839 142.8 799C119 759 95 754 71.2 796.5C47.3 839 23.7 929 11.8 974L0 1019Z" fill="#009ca3"></path><path d="M0 1381L11.8 1326C23.7 1271 47.3 1161 71.2 1098.5C95 1036 119 1021 142.8 1033.5C166.7 1046 190.3 1086 214.2 1056C238 1026 262 926 285.8 966C309.7 1006 333.3 1186 357.2 1193.5C381 1201 405 1036 428.8 1008.5C452.7 981 476.3 1091 488.2 1146L500 1201L500 974L488.2 924C476.3 874 452.7 774 428.8 781.5C405 789 381 904 357.2 914C333.3 924 309.7 829 285.8 844C262 859 238 984 214.2 1004C190.3 1024 166.7 939 142.8 896.5C119 854 95 854 71.2 899C47.3 944 23.7 1034 11.8 1079L0 1124Z" fill="#11afb7"></path><path d="M0 1411L11.8 1416C23.7 1421 47.3 1431 71.2 1426C95 1421 119 1401 142.8 1411C166.7 1421 190.3 1461 214.2 1473.5C238 1486 262 1471 285.8 1471C309.7 1471 333.3 1486 357.2 1476C381 1466 405 1431 428.8 1413.5C452.7 1396 476.3 1396 488.2 1396L500 1396L500 1199L488.2 1144C476.3 1089 452.7 979 428.8 1006.5C405 1034 381 1199 357.2 1191.5C333.3 1184 309.7 1004 285.8 964C262 924 238 1024 214.2 1054C190.3 1084 166.7 1044 142.8 1031.5C119 1019 95 1034 71.2 1096.5C47.3 1159 23.7 1269 11.8 1324L0 1379Z" fill="#36bbc2"></path><path d="M0 1501L11.8 1501C23.7 1501 47.3 1501 71.2 1501C95 1501 119 1501 142.8 1501C166.7 1501 190.3 1501 214.2 1501C238 1501 262 1501 285.8 1501C309.7 1501 333.3 1501 357.2 1501C381 1501 405 1501 428.8 1501C452.7 1501 476.3 1501 488.2 1501L500 1501L500 1394L488.2 1394C476.3 1394 452.7 1394 428.8 1411.5C405 1429 381 1464 357.2 1474C333.3 1484 309.7 1469 285.8 1469C262 1469 238 1484 214.2 1471.5C190.3 1459 166.7 1419 142.8 1409C119 1399 95 1419 71.2 1424C47.3 1429 23.7 1419 11.8 1414L0 1409Z" fill="#4dc7cd"></path></svg>