<svg id="visual" viewBox="0 0 960 540" width="960" height="540" xmlns="http://www.w3.org/2000/svg" xmlns:xlink="http://www.w3.org/1999/xlink" version="1.1"><path d="M0 17L22.8 18C45.7 19 91.3 21 137 22C182.7 23 228.3 23 274 23C319.7 23 365.3 23 411.2 23C457 23 503 23 548.8 23C594.7 23 640.3 23 686 23C731.7 23 777.3 23 823 23C868.7 23 914.3 23 937.2 23L960 23L960 0L937.2 0C914.3 0 868.7 0 823 0C777.3 0 731.7 0 686 0C640.3 0 594.7 0 548.8 0C503 0 457 0 411.2 0C365.3 0 319.7 0 274 0C228.3 0 182.7 0 137 0C91.3 0 45.7 0 22.8 0L0 0Z" fill="#4dc7cd"></path><path d="M0 98L22.8 93.5C45.7 89 91.3 80 137 81C182.7 82 228.3 93 274 94C319.7 95 365.3 86 411.2 79.7C457 73.3 503 69.7 548.8 73.2C594.7 76.7 640.3 87.3 686 90C731.7 92.7 777.3 87.3 823 82C868.7 76.7 914.3 71.3 937.2 68.7L960 66L960 21L937.2 21C914.3 21 868.7 21 823 21C777.3 21 731.7 21 686 21C640.3 21 594.7 21 548.8 21C503 21 457 21 411.2 21C365.3 21 319.7 21 274 21C228.3 21 182.7 21 137 20C91.3 19 45.7 17 22.8 16L0 15Z" fill="#36bbc2"></path><path d="M0 131L22.8 128.2C45.7 125.3 91.3 119.7 137 122.3C182.7 125 228.3 136 274 138.8C319.7 141.7 365.3 136.3 411.2 130C457 123.7 503 116.3 548.8 118C594.7 119.7 640.3 130.3 686 134.8C731.7 139.3 777.3 137.7 823 131.5C868.7 125.3 914.3 114.7 937.2 109.3L960 104L960 64L937.2 66.7C914.3 69.3 868.7 74.7 823 80C777.3 85.3 731.7 90.7 686 88C640.3 85.3 594.7 74.7 548.8 71.2C503 67.7 457 71.3 411.2 77.7C365.3 84 319.7 93 274 92C228.3 91 182.7 80 137 79C91.3 78 45.7 87 22.8 91.5L0 96Z" fill="#11afb7"></path><path d="M0 158L22.8 157C45.7 156 91.3 154 137 157.5C182.7 161 228.3 170 274 171C319.7 172 365.3 165 411.2 160.5C457 156 503 154 548.8 155.7C594.7 157.3 640.3 162.7 686 166.3C731.7 170 777.3 172 823 165.8C868.7 159.7 914.3 145.3 937.2 138.2L960 131L960 102L937.2 107.3C914.3 112.7 868.7 123.3 823 129.5C777.3 135.7 731.7 137.3 686 132.8C640.3 128.3 594.7 117.7 548.8 116C503 114.3 457 121.7 411.2 128C365.3 134.3 319.7 139.7 274 136.8C228.3 134 182.7 123 137 120.3C91.3 117.7 45.7 123.3 22.8 126.2L0 129Z" fill="#009ca3"></path><path d="M0 293L22.8 289.3C45.7 285.7 91.3 278.3 137 274.7C182.7 271 228.3 271 274 275.5C319.7 280 365.3 289 411.2 292.7C457 296.3 503 294.7 548.8 287.5C594.7 280.3 640.3 267.7 686 268.5C731.7 269.3 777.3 283.7 823 282.7C868.7 281.7 914.3 265.3 937.2 257.2L960 249L960 129L937.2 136.2C914.3 143.3 868.7 157.7 823 163.8C777.3 170 731.7 168 686 164.3C640.3 160.7 594.7 155.3 548.8 153.7C503 152 457 154 411.2 158.5C365.3 163 319.7 170 274 169C228.3 168 182.7 159 137 155.5C91.3 152 45.7 154 22.8 155L0 156Z" fill="#00878d"></path><path d="M0 325L22.8 318.7C45.7 312.3 91.3 299.7 137 295.2C182.7 290.7 228.3 294.3 274 298.8C319.7 303.3 365.3 308.7 411.2 310.5C457 312.3 503 310.7 548.8 305.3C594.7 300 640.3 291 686 291.8C731.7 292.7 777.3 303.3 823 300.7C868.7 298 914.3 282 937.2 274L960 266L960 247L937.2 255.2C914.3 263.3 868.7 279.7 823 280.7C777.3 281.7 731.7 267.3 686 266.5C640.3 265.7 594.7 278.3 548.8 285.5C503 292.7 457 294.3 411.2 290.7C365.3 287 319.7 278 274 273.5C228.3 269 182.7 269 137 272.7C91.3 276.3 45.7 283.7 22.8 287.3L0 291Z" fill="#007f84"></path><path d="M0 347L22.8 341.5C45.7 336 91.3 325 137 321.3C182.7 317.7 228.3 321.3 274 325.8C319.7 330.3 365.3 335.7 411.2 336.5C457 337.3 503 333.7 548.8 328.3C594.7 323 640.3 316 686 317C731.7 318 777.3 327 823 324.3C868.7 321.7 914.3 307.3 937.2 300.2L960 293L960 264L937.2 272C914.3 280 868.7 296 823 298.7C777.3 301.3 731.7 290.7 686 289.8C640.3 289 594.7 298 548.8 303.3C503 308.7 457 310.3 411.2 308.5C365.3 306.7 319.7 301.3 274 296.8C228.3 292.3 182.7 288.7 137 293.2C91.3 297.7 45.7 310.3 22.8 316.7L0 323Z" fill="#007f84"></path><path d="M0 417L22.8 418.8C45.7 420.7 91.3 424.3 137 426.2C182.7 428 228.3 428 274 426.2C319.7 424.3 365.3 420.7 411.2 419.7C457 418.7 503 420.3 548.8 420.3C594.7 420.3 640.3 418.7 686 421.3C731.7 424 777.3 431 823 429.2C868.7 427.3 914.3 416.7 937.2 411.3L960 406L960 291L937.2 298.2C914.3 305.3 868.7 319.7 823 322.3C777.3 325 731.7 316 686 315C640.3 314 594.7 321 548.8 326.3C503 331.7 457 335.3 411.2 334.5C365.3 333.7 319.7 328.3 274 323.8C228.3 319.3 182.7 315.7 137 319.3C91.3 323 45.7 334 22.8 339.5L0 345Z" fill="#00878d"></path><path d="M0 449L22.8 449C45.7 449 91.3 449 137 450.8C182.7 452.7 228.3 456.3 274 456.3C319.7 456.3 365.3 452.7 411.2 451.8C457 451 503 453 548.8 453C594.7 453 640.3 451 686 452.7C731.7 454.3 777.3 459.7 823 456.2C868.7 452.7 914.3 440.3 937.2 434.2L960 428L960 404L937.2 409.3C914.3 414.7 868.7 425.3 823 427.2C777.3 429 731.7 422 686 419.3C640.3 416.7 594.7 418.3 548.8 418.3C503 418.3 457 416.7 411.2 417.7C365.3 418.7 319.7 422.3 274 424.2C228.3 426 182.7 426 137 424.2C91.3 422.3 45.7 418.7 22.8 416.8L0 415Z" fill="#009ca3"></path><path d="M0 471L22.8 471C45.7 471 91.3 471 137 471.8C182.7 472.7 228.3 474.3 274 473.3C319.7 472.3 365.3 468.7 411.2 467.8C457 467 503 469 548.8 470C594.7 471 640.3 471 686 472.8C731.7 474.7 777.3 478.3 823 475.7C868.7 473 914.3 464 937.2 459.5L960 455L960 426L937.2 432.2C914.3 438.3 868.7 450.7 823 454.2C777.3 457.7 731.7 452.3 686 450.7C640.3 449 594.7 451 548.8 451C503 451 457 449 411.2 449.8C365.3 450.7 319.7 454.3 274 454.3C228.3 454.3 182.7 450.7 137 448.8C91.3 447 45.7 447 22.8 447L0 447Z" fill="#11afb7"></path><path d="M0 514L22.8 513.2C45.7 512.3 91.3 510.7 137 511.5C182.7 512.3 228.3 515.7 274 515.7C319.7 515.7 365.3 512.3 411.2 512.3C457 512.3 503 515.7 548.8 517.3C594.7 519 640.3 519 686 518.2C731.7 517.3 777.3 515.7 823 513C868.7 510.3 914.3 506.7 937.2 504.8L960 503L960 453L937.2 457.5C914.3 462 868.7 471 823 473.7C777.3 476.3 731.7 472.7 686 470.8C640.3 469 594.7 469 548.8 468C503 467 457 465 411.2 465.8C365.3 466.7 319.7 470.3 274 471.3C228.3 472.3 182.7 470.7 137 469.8C91.3 469 45.7 469 22.8 469L0 469Z" fill="#36bbc2"></path><path d="M0 541L22.8 541C45.7 541 91.3 541 137 541C182.7 541 228.3 541 274 541C319.7 541 365.3 541 411.2 541C457 541 503 541 548.8 541C594.7 541 640.3 541 686 541C731.7 541 777.3 541 823 541C868.7 541 914.3 541 937.2 541L960 541L960 501L937.2 502.8C914.3 504.7 868.7 508.3 823 511C777.3 513.7 731.7 515.3 686 516.2C640.3 517 594.7 517 548.8 515.3C503 513.7 457 510.3 411.2 510.3C365.3 510.3 319.7 513.7 274 513.7C228.3 513.7 182.7 510.3 137 509.5C91.3 508.7 45.7 510.3 22.8 511.2L0 512Z" fill="#4dc7cd"></path></svg>