<svg id="visual" viewBox="0 0 960 540" width="960" height="540" xmlns="http://www.w3.org/2000/svg" xmlns:xlink="http://www.w3.org/1999/xlink" version="1.1"><rect x="0" y="0" width="960" height="540" fill="#222222"></rect><defs><linearGradient id="grad1_0" x1="43.8%" y1="0%" x2="100%" y2="100%"><stop offset="14.444444444444446%" stop-color="#00adb5" stop-opacity="1"></stop><stop offset="85.55555555555554%" stop-color="#00adb5" stop-opacity="1"></stop></linearGradient></defs><defs><linearGradient id="grad1_1" x1="43.8%" y1="0%" x2="100%" y2="100%"><stop offset="14.444444444444446%" stop-color="#00adb5" stop-opacity="1"></stop><stop offset="85.55555555555554%" stop-color="#2e6367" stop-opacity="1"></stop></linearGradient></defs><defs><linearGradient id="grad1_2" x1="43.8%" y1="0%" x2="100%" y2="100%"><stop offset="14.444444444444446%" stop-color="#222222" stop-opacity="1"></stop><stop offset="85.55555555555554%" stop-color="#2e6367" stop-opacity="1"></stop></linearGradient></defs><defs><linearGradient id="grad2_0" x1="0%" y1="0%" x2="56.3%" y2="100%"><stop offset="14.444444444444446%" stop-color="#00adb5" stop-opacity="1"></stop><stop offset="85.55555555555554%" stop-color="#00adb5" stop-opacity="1"></stop></linearGradient></defs><defs><linearGradient id="grad2_1" x1="0%" y1="0%" x2="56.3%" y2="100%"><stop offset="14.444444444444446%" stop-color="#2e6367" stop-opacity="1"></stop><stop offset="85.55555555555554%" stop-color="#00adb5" stop-opacity="1"></stop></linearGradient></defs><defs><linearGradient id="grad2_2" x1="0%" y1="0%" x2="56.3%" y2="100%"><stop offset="14.444444444444446%" stop-color="#2e6367" stop-opacity="1"></stop><stop offset="85.55555555555554%" stop-color="#222222" stop-opacity="1"></stop></linearGradient></defs><g transform="translate(960, 0)"><path d="M0 432C-40.6 410.1 -81.2 388.2 -121.4 373.8C-161.7 359.4 -201.6 352.4 -243.9 335.7C-286.2 319 -330.9 292.5 -349.5 253.9C-368.1 215.3 -360.6 164.5 -370 120.2C-379.4 75.9 -405.7 37.9 -432 0L0 0Z" fill="#2b4143"></path><path d="M0 288C-27.1 273.4 -54.1 258.8 -81 249.2C-107.8 239.6 -134.4 235 -162.6 223.8C-190.8 212.7 -220.6 195 -233 169.3C-245.4 143.5 -240.4 109.7 -246.6 80.1C-252.9 50.6 -270.5 25.3 -288 0L0 0Z" fill="#27878d"></path><path d="M0 144C-13.5 136.7 -27.1 129.4 -40.5 124.6C-53.9 119.8 -67.2 117.5 -81.3 111.9C-95.4 106.3 -110.3 97.5 -116.5 84.6C-122.7 71.8 -120.2 54.8 -123.3 40.1C-126.5 25.3 -135.2 12.6 -144 0L0 0Z" fill="#00adb5"></path></g><g transform="translate(0, 540)"><path d="M0 -432C47 -430.7 94 -429.4 133.5 -410.9C172.9 -392.3 204.8 -356.6 237.5 -326.8C270.1 -297 303.5 -273.1 333.3 -242.2C363.1 -211.2 389.3 -173.2 405.2 -131.6C421 -90.1 426.5 -45.1 432 0L0 0Z" fill="#2b4143"></path><path d="M0 -288C31.3 -287.1 62.7 -286.2 89 -273.9C115.3 -261.6 136.5 -237.8 158.3 -217.9C180.1 -198 202.3 -182.1 222.2 -161.4C242.1 -140.8 259.5 -115.5 270.1 -87.8C280.7 -60.1 284.3 -30 288 0L0 0Z" fill="#27878d"></path><path d="M0 -144C15.7 -143.6 31.3 -143.1 44.5 -137C57.6 -130.8 68.3 -118.9 79.2 -108.9C90 -99 101.2 -91 111.1 -80.7C121 -70.4 129.8 -57.7 135.1 -43.9C140.3 -30 142.2 -15 144 0L0 0Z" fill="#00adb5"></path></g></svg>